HIERARCHY
ROOT Hips
{
	OFFSET 0.00000 0.00000 0.00000
	CHANNELS 6 Xposition Yposition Zposition Zrotation Yrotation Xrotation 
	JOINT LHipJoint
	{
		OFFSET 0 0 0
		CHANNELS 3 Zrotation Yrotation Xrotation
		JOINT LeftUpLeg
		{
			OFFSET 2.36090 -1.39315 1.24752
			CHANNELS 3 Zrotation Yrotation Xrotation
			JOINT LeftLeg
			{
				OFFSET 2.06810 -5.68207 0.00000
				CHANNELS 3 Zrotation Yrotation Xrotation
				JOINT LeftFoot
				{
					OFFSET 2.46631 -6.77613 0.00000
					CHANNELS 3 Zrotation Yrotation Xrotation
					JOINT LeftToeBase
					{
						OFFSET 0.26031 -0.71520 1.99545
						CHANNELS 3 Zrotation Yrotation Xrotation
						End Site
						{
							OFFSET 0.00000 -0.00000 1.05957
						}
					}
				}
			}
		}
	}
	JOINT RHipJoint
	{
		OFFSET 0 0 0
		CHANNELS 3 Zrotation Yrotation Xrotation
		JOINT RightUpLeg
		{
			OFFSET -2.25243 -1.39315 1.24752
			CHANNELS 3 Zrotation Yrotation Xrotation
			JOINT RightLeg
			{
				OFFSET -2.17343 -5.97145 0.00000
				CHANNELS 3 Zrotation Yrotation Xrotation
				JOINT RightFoot
				{
					OFFSET -2.52372 -6.93386 0.00000
					CHANNELS 3 Zrotation Yrotation Xrotation
					JOINT RightToeBase
					{
						OFFSET -0.22538 -0.61923 2.11447
						CHANNELS 3 Zrotation Yrotation Xrotation
						End Site
						{
							OFFSET -0.00000 -0.00000 1.10506
						}
					}
				}
			}
		}
	}
	JOINT LowerBack
	{
		OFFSET 0 0 0
		CHANNELS 3 Zrotation Yrotation Xrotation
		JOINT Spine
		{
			OFFSET 0.01594 2.13103 0.08007
			CHANNELS 3 Zrotation Yrotation Xrotation
			JOINT Spine1
			{
				OFFSET 0.01393 2.09723 0.18338
				CHANNELS 3 Zrotation Yrotation Xrotation
				JOINT Neck
				{
					OFFSET 0 0 0
					CHANNELS 3 Zrotation Yrotation Xrotation
					JOINT Neck1
					{
						OFFSET 0.05351 1.38915 0.32494
						CHANNELS 3 Zrotation Yrotation Xrotation
						JOINT Head
						{
							OFFSET 0.00711 1.45992 -0.21666
							CHANNELS 3 Zrotation Yrotation Xrotation
							End Site
							{
								OFFSET -0.00433 1.47702 -0.11056
							}
						}
					}
				}
				JOINT LeftShoulder
				{
					OFFSET 0 0 0
					CHANNELS 3 Zrotation Yrotation Xrotation
					JOINT LeftArm
					{
						OFFSET 2.87198 0.92249 0.11132
						CHANNELS 3 Zrotation Yrotation Xrotation
						JOINT LeftForeArm
						{
							OFFSET 5.52731 -0.00000 0.00000
							CHANNELS 3 Zrotation Yrotation Xrotation
							JOINT LeftHand
							{
								OFFSET 3.11059 -0.00000 0.00000
								CHANNELS 3 Zrotation Yrotation Xrotation
								JOINT LeftFingerBase
								{
									OFFSET 0 0 0
									CHANNELS 3 Zrotation Yrotation Xrotation
									JOINT LeftHandIndex1
									{
										OFFSET 0.41963 -0.00000 0.00000
										CHANNELS 3 Zrotation Yrotation Xrotation
										End Site
										{
											OFFSET 0.33831 -0.00000 0.00000
										}
									}
								}
								JOINT LThumb
								{
									OFFSET 0 0 0
									CHANNELS 3 Zrotation Yrotation Xrotation
									End Site
									{
										OFFSET 0.34348 -0.00000 0.34348
									}
								}
							}
						}
					}
				}
				JOINT RightShoulder
				{
					OFFSET 0 0 0
					CHANNELS 3 Zrotation Yrotation Xrotation
					JOINT RightArm
					{
						OFFSET -2.94710 0.68072 0.32187
						CHANNELS 3 Zrotation Yrotation Xrotation
						JOINT RightForeArm
						{
							OFFSET -5.25396 -0.00000 -0.00000
							CHANNELS 3 Zrotation Yrotation Xrotation
							JOINT RightHand
							{
								OFFSET -3.10567 -0.00000 0.00000
								CHANNELS 3 Zrotation Yrotation Xrotation
								JOINT RightFingerBase
								{
									OFFSET 0 0 0
									CHANNELS 3 Zrotation Yrotation Xrotation
									JOINT RightHandIndex1
									{
										OFFSET -0.49868 -0.00000 0.00000
										CHANNELS 3 Zrotation Yrotation Xrotation
										End Site
										{
											OFFSET -0.40204 -0.00000 0.00000
										}
									}
								}
								JOINT RThumb
								{
									OFFSET 0 0 0
									CHANNELS 3 Zrotation Yrotation Xrotation
									End Site
									{
										OFFSET -0.40818 -0.00000 0.40818
									}
								}
							}
						}
					}
				}
			}
		}
	}
}
MOTION
Frames: 15
Frame Time: 0.0232558
0.00 0.00 0.00 -179.0430 -2.0365 -99.0937 0.0000 0.0000 0.0000 -2.5081 -27.0008 -26.2026 0.0000 0.0000 0.0000 2.8066 -2.1830 -31.1715 0.7816 -5.6443 -15.7559 0.0000 0.0000 0.0000 -23.1691 6.6163 -137.4873 -0.7278 -5.4510 15.1994 -4.7681 -20.8520 40.3684 -0.1476 2.4760 -6.8231 -6.7672 1.6846 8.0795 5.9649 1.3565 4.7930 10.0820 0.2958 0.1762 1.9101 1.1251 -45.9208 0.0774 1.6772 11.1949 0.1595 1.3321 10.3222 0.0000 -0.0000 0.0000 38.7036 -73.5133 -55.6094 14.8418 -23.9252 -3.1615 -0.0000 0.0000 -24.1029 52.4694 -19.8045 -23.8003 -7.1250 0.0000 -0.0000 14.6206 0.2465 -15.0569 0.0000 -0.0000 0.0000 -95.6789 79.5211 -111.3068 -13.8907 22.5783 -2.7860 0.0000 0.0000 17.5750 -40.5425 -8.1488 6.9130 7.1250 -0.0000 -0.0000 -12.0630 -40.3581 -1.4039
0.00 0.00 0.00 -192.4270 -4.8903 -93.4650 0.0000 0.0000 0.0000 2.4423 -42.8764 -38.2900 0.0000 0.0000 0.0000 1.3904 16.6495 -33.5944 2.5011 -9.8399 -28.4597 0.0000 0.0000 0.0000 -22.2999 -13.8007 -130.1489 0.0000 0.0000 -0.0000 -0.2268 -44.8327 33.0138 -3.9510 -12.0949 36.0685 0.5812 -2.5927 7.8130 5.7326 -4.5308 8.8633 5.8085 -2.7310 5.3669 -2.4825 0.3561 -11.6200 1.2360 1.7419 24.9138 1.0877 0.8906 9.7699 0.0000 -0.0000 0.0000 60.2884 -53.8374 -71.4331 16.1265 -25.6919 -3.7006 -0.0000 0.0000 -29.1286 46.9786 -8.8142 -9.3246 -7.1250 0.0000 -0.0000 13.9558 17.3955 -9.4306 0.0000 -0.0000 0.0000 -71.1319 54.8299 -88.7827 -19.5200 30.0597 -5.2888 0.0000 0.0000 7.5740 -49.2802 -0.5630 0.6541 7.1250 -0.0000 -0.0000 -17.8274 -30.5382 -6.5838
0.00 0.00 0.00 -194.0200 -3.3066 -95.1356 0.0000 0.0000 0.0000 -2.4820 -45.4210 -35.2730 0.0000 0.0000 0.0000 1.6520 15.5440 -34.1024 2.3061 -9.4765 -27.2976 0.0000 0.0000 0.0000 -23.6599 -17.1458 -128.2033 0.0000 -0.0000 0.0000 2.4504 -48.9339 27.2960 -5.1916 -13.5963 41.6439 2.1757 -3.3496 6.9550 5.1524 -6.3887 12.2259 4.1391 -3.7071 9.5893 -1.5673 -0.6747 -8.0112 0.8285 3.3891 39.6313 1.1615 1.4471 15.1428 -0.0000 0.0000 0.0000 59.0320 -45.8204 -65.4516 17.2999 -27.2514 -4.2237 -0.0000 0.0000 -35.5594 48.9623 -6.3566 -7.2488 -7.1250 0.0000 -0.0000 15.8465 20.4983 -9.6651 -0.0000 0.0000 0.0000 -65.2455 49.7798 -103.3003 -9.9672 16.6882 -1.4655 0.0000 0.0000 30.4687 -44.4418 -3.8309 3.7488 7.1250 -0.0000 -0.0000 -14.7288 -35.0170 -3.7134
0.00 0.00 0.00 -192.4610 -8.4201 -94.9383 0.0000 0.0000 0.0000 6.9612 -43.7259 -37.4503 0.0000 -0.0000 -0.0000 1.4755 18.2593 -35.5963 2.6866 -10.1695 -29.5274 0.0000 0.0000 0.0000 -25.2053 -14.4217 -120.5807 0.0000 -0.0000 0.0000 8.1605 -44.3774 -30.6316 -10.6631 -17.7663 61.6826 -1.7444 -0.0475 7.5835 8.0899 -1.4622 8.7306 9.6625 -1.5060 5.2171 4.7628 0.5326 -15.8981 -4.3670 0.0701 22.0453 -2.3281 -0.1731 9.5986 -0.0000 0.0000 0.0000 70.3904 -56.2136 -78.9146 15.0595 -24.2289 -3.2503 -0.0000 0.0000 -29.2673 48.0410 -1.7598 -1.9563 -7.1250 0.0000 -0.0000 16.3086 27.2250 -7.3198 -0.0000 0.0000 0.0000 -76.1158 61.1969 -93.3752 -15.8762 25.3525 -3.5928 0.0000 0.0000 21.6229 -36.9902 -16.3027 11.9396 7.1250 -0.0000 -0.0000 -9.2316 -49.8653 1.1157
0.00 0.00 0.00 -191.9090 -8.2472 -95.3316 0.0000 0.0000 0.0000 6.2932 -43.2153 -36.5590 0.0000 0.0000 0.0000 1.5232 17.9995 -35.6094 2.7118 -10.2132 -29.6698 0.0000 0.0000 0.0000 -25.5431 -13.6927 -120.7213 0.0000 0.0000 -0.0000 11.7770 -49.7473 -19.1500 -9.6031 -17.1805 58.1533 -2.0404 0.1107 7.6235 8.0296 -1.2225 8.5640 9.7610 -1.3819 4.9732 4.9688 0.5205 -15.9520 -4.5583 0.0567 21.7796 -2.4262 -0.1834 9.5141 -0.0000 -0.0000 0.0000 70.2928 -57.2499 -79.0416 14.9639 -24.0958 -3.2112 -0.0000 0.0000 -28.6514 48.0649 -1.6819 -1.8713 -7.1250 0.0000 -0.0000 16.3449 27.3354 -7.2930 -0.0000 -0.0000 0.0000 -75.7402 62.1030 -92.8803 -15.5832 24.9522 -3.4683 0.0000 0.0000 21.4892 -37.4902 -16.0214 11.9533 7.1250 -0.0000 -0.0000 -9.7430 -49.6248 1.1204
0.00 0.00 0.00 -191.4080 -8.0406 -95.7427 0.0000 0.0000 0.0000 5.5718 -42.7414 -35.6157 0.0000 -0.0000 -0.0000 1.5715 17.7124 -35.6036 2.7512 -10.2809 -29.8912 0.0000 0.0000 0.0000 -25.9135 -13.0327 -120.8644 0.0000 -0.0000 0.0000 11.3438 -52.7321 -1.6191 -7.6878 -15.8848 51.4302 -2.3491 0.2249 7.6339 7.9136 -1.0567 8.4998 9.8076 -1.3021 4.8684 5.1252 0.5235 -16.2277 -4.6233 0.0564 21.3283 -2.4674 -0.1752 9.4072 -0.0000 0.0000 0.0000 69.9673 -57.9558 -78.5309 14.9444 -24.0686 -3.2032 -0.0000 0.0000 -28.4783 48.1116 -1.5706 -1.7505 -7.1250 0.0000 -0.0000 16.4063 27.4921 -7.2591 -0.0000 0.0000 0.0000 -75.5975 62.8768 -92.8039 -15.3292 24.6028 -3.3618 0.0000 0.0000 21.2811 -38.0041 -15.7588 11.9815 7.1250 -0.0000 -0.0000 -10.2647 -49.4065 1.1260
0.00 0.00 0.00 -189.9140 -7.2441 -98.7764 0.0000 0.0000 0.0000 1.1443 -41.2374 -29.0756 0.0000 0.0000 0.0000 1.8823 15.9840 -35.7517 2.8235 -10.4038 -30.2944 0.0000 0.0000 0.0000 -23.8300 -8.7216 -132.6912 -0.9178 -6.1041 17.0869 -2.5960 -30.4096 33.7983 -0.2175 -3.0020 8.2845 -3.6600 0.5633 8.4074 7.5343 -0.6576 8.5786 10.1565 -1.1572 4.4589 4.6485 0.5138 -18.4338 -4.2577 0.1581 19.0110 -2.2168 -0.1095 9.0120 -0.0000 0.0000 0.0000 68.2289 -62.4962 -77.8683 14.8643 -23.9568 -3.1706 -0.0000 0.0000 -26.4852 48.8917 -2.6799 -3.0670 -7.1250 0.0000 -0.0000 16.7007 25.8342 -8.0825 -0.0000 0.0000 0.0000 -74.3027 67.4054 -92.9858 -14.8635 23.9556 -3.1703 0.0000 0.0000 20.5001 -41.5966 -13.3977 11.6234 7.1250 -0.0000 -0.0000 -13.7255 -47.1690 0.7482
0.00 0.00 0.00 -189.8250 -8.0568 -102.2320 0.0000 0.0000 0.0000 -2.4481 -40.9593 -21.2722 0.0000 0.0000 0.0000 1.8782 16.3994 -36.0823 3.3954 -11.3092 -33.3300 0.0000 0.0000 0.0000 -13.4224 -2.1875 -146.2090 -3.9359 -12.0746 35.9962 -3.0857 -12.3938 31.7482 -0.0827 -1.8552 5.1057 -3.9821 0.6227 8.9217 7.2972 -0.5735 8.4657 10.0811 -1.1038 4.0318 5.3332 0.5750 -19.0271 -3.3145 -0.1401 17.9300 -2.0294 -0.0913 8.7351 0.0000 -0.0000 0.0000 66.5722 -68.7626 -75.2323 15.4843 -24.8165 -3.4267 -0.0000 0.0000 -26.2503 50.3766 -5.2095 -6.2583 -7.1250 0.0000 -0.0000 17.0919 21.9423 -9.9056 0.0000 -0.0000 0.0000 -64.6411 73.6233 -88.0410 -15.3292 24.6028 -3.3618 0.0000 0.0000 20.5126 -44.4827 -11.3836 10.9705 7.1250 -0.0000 -0.0000 -16.2580 -45.0955 0.0394
0.00 0.00 0.00 -188.1810 -8.4109 -106.1780 0.0000 0.0000 0.0000 -6.2281 -38.4547 -12.2828 0.0000 0.0000 0.0000 1.8238 16.2500 -35.6630 4.1971 -12.4181 -37.2276 0.0000 0.0000 0.0000 -8.1294 2.1906 -153.0704 -7.5560 -15.7828 50.9472 -2.2001 -4.1910 27.0720 -0.1356 -2.3733 6.5384 -5.2141 1.2316 9.1435 7.0052 0.2069 8.3295 10.4413 -0.7385 3.6056 5.6071 0.6273 -19.4856 -2.0791 -0.4644 18.4369 -1.7019 -0.0873 8.9835 -0.0000 -0.0000 0.0000 61.7931 -75.9845 -69.7641 16.3109 -25.9403 -3.7809 -0.0000 0.0000 -24.8940 52.3498 -7.6621 -9.8050 -7.1250 0.0000 -0.0000 17.7401 17.8735 -12.0311 -0.0000 -0.0000 0.0000 -38.8634 81.2081 -69.0970 -15.5947 24.9680 -3.4731 0.0000 0.0000 22.0377 -47.3015 -9.7082 10.3566 7.1250 -0.0000 -0.0000 -18.5951 -43.3311 -0.7953
0.00 0.00 0.00 -187.0490 -8.0286 -108.0760 0.0000 0.0000 0.0000 -8.1923 -36.5975 -8.0840 0.0000 0.0000 0.0000 1.8677 15.3901 -35.1745 4.3608 -12.6256 -37.9826 0.0000 0.0000 0.0000 -6.4889 4.2185 -155.0752 -9.2251 -16.9504 56.8655 -1.7981 -1.6604 24.8979 -0.1807 -2.7380 7.5501 -6.0331 1.7068 9.3015 6.7499 0.8248 8.2204 10.5983 -0.4314 3.2626 5.4196 0.5246 -19.6618 -1.7782 -0.6583 19.0447 -1.6019 -0.1551 9.2202 -0.0000 0.0000 0.0000 56.7836 -79.8923 -66.2187 16.6171 -26.3502 -3.9158 -0.0000 0.0000 -22.9676 52.7251 -8.8630 -11.4438 -7.1250 0.0000 -0.0000 17.6513 15.9546 -12.7464 -0.0000 0.0000 0.0000 -10.9547 82.8537 -43.1659 -15.6927 25.1023 -3.5146 0.0000 0.0000 21.9031 -48.1958 -9.3474 10.2944 7.1250 -0.0000 -0.0000 -19.3482 -42.9824 -1.0039
0.00 0.00 0.00 -185.9490 -7.6925 -110.0160 0.0000 0.0000 0.0000 -10.0207 -34.5770 -3.5820 0.0000 -0.0000 -0.0000 1.8148 14.3985 -34.0613 4.6532 -12.9823 -39.3023 0.0000 0.0000 0.0000 -4.7504 5.9195 -157.2600 -11.3292 -18.0924 63.8459 -1.3435 0.7360 22.1909 -0.2593 -3.2764 9.0492 -6.6816 2.0838 9.3051 6.4350 1.3485 8.0028 10.5865 -0.1453 2.9033 5.4225 0.4124 -20.3987 -1.9575 -0.8573 20.1068 -1.7108 -0.2600 9.7168 -0.0000 0.0000 0.0000 39.5425 -84.3780 -51.2079 16.9290 -26.7640 -4.0553 -0.0000 0.0000 -19.8440 53.2120 -10.2860 -13.4303 -7.1250 0.0000 -0.0000 17.5669 13.6523 -13.5921 -0.0000 0.0000 0.0000 25.5994 82.1386 -8.3350 -15.8541 25.3225 -3.5833 0.0000 0.0000 21.3096 -49.1839 -8.8306 10.0789 7.1250 -0.0000 -0.0000 -20.1302 -42.4222 -1.3398
0.00 0.00 0.00 -185.3150 -7.4726 -111.3520 0.0000 0.0000 0.0000 -11.2435 -33.1778 -0.2934 0.0000 0.0000 0.0000 1.7629 13.4406 -32.9862 4.8344 -13.1949 -40.1024 0.0000 0.0000 0.0000 -3.5125 6.7855 -158.9902 -13.0984 -18.8174 69.4307 -1.0200 2.4302 20.0994 -0.3414 -3.7547 10.3875 -7.0881 2.1345 9.0893 6.1853 1.4615 7.7742 10.5386 -0.0640 2.7503 5.2317 0.4370 -21.1062 -1.9361 -0.8532 21.1309 -1.6913 -0.2641 10.2135 0.0000 0.0000 0.0000 -0.2551 -85.8226 -12.4391 17.2599 -27.1992 -4.2055 -0.0000 0.0000 -18.2711 53.7650 -11.5639 -15.2987 -7.1250 0.0000 -0.0000 17.5553 11.5299 -14.4023 0.0000 0.0000 0.0000 46.3278 80.3204 11.5190 -16.1604 25.7377 -3.7154 0.0000 0.0000 21.2053 -50.1445 -8.4464 9.9790 7.1250 -0.0000 -0.0000 -20.9110 -42.0338 -1.6080
0.00 0.00 0.00 -172.8080 1.1641 -117.2880 0.0000 0.0000 0.0000 -17.1579 -12.8293 15.9839 0.0000 0.0000 0.0000 0.8648 -13.4849 -17.8576 0.8425 -5.8549 -16.3639 0.0000 0.0000 0.0000 2.6671 19.9149 -171.2628 -23.0351 -19.7777 98.9056 -0.1288 8.8674 14.7752 -1.4570 -7.6292 21.5933 -9.7005 1.6686 8.0401 5.5247 1.8396 2.3150 11.2825 1.0706 -2.5474 7.9031 5.9356 -26.5196 -3.7772 7.3116 28.7969 -1.3472 3.5843 14.8814 0.0000 0.0000 0.0000 -71.6084 -57.8549 26.2579 23.9921 -35.1559 -7.7020 -0.0000 0.0000 -9.9494 89.1023 -38.4072 -88.5552 -7.1250 0.0000 -0.0000 29.4835 -54.0664 -42.1571 0.0000 0.0000 0.0000 93.6474 50.5049 61.6277 -26.5371 37.7341 -9.2144 0.0000 0.0000 19.9587 -51.5818 -10.3321 12.7425 7.1250 -0.0000 -0.0000 -22.9964 -44.9989 -0.0007
0.00 0.00 0.00 -170.2300 4.7475 -119.5150 0.0000 0.0000 0.0000 -21.4360 -6.9235 20.4687 0.0000 0.0000 0.0000 -0.7177 -16.7839 -2.2695 0.3399 3.7466 10.3648 0.0000 0.0000 0.0000 3.2198 19.0105 -175.5371 -25.4940 -19.2604 106.2559 -0.3400 8.9121 17.6465 -2.2294 -9.3285 26.8283 -9.4473 2.3297 6.9259 6.4424 2.9905 3.2591 12.0791 1.5789 -1.2546 5.5807 6.3627 -26.6219 -5.1764 9.7042 29.9210 -1.0277 4.1061 15.5477 -0.0000 -0.0000 0.0000 -77.4077 -54.5860 29.0339 25.8806 -37.0905 -8.8155 -0.0000 0.0000 -9.1823 93.2222 39.4766 95.0604 -7.1250 0.0000 -0.0000 32.2275 -58.8157 -45.0350 -0.0000 -0.0000 0.0000 86.6094 43.4279 59.7600 -37.2825 46.3749 -16.4442 0.0000 0.0000 17.0116 -49.2225 -11.9148 13.4618 7.1250 -0.0000 -0.0000 -21.1624 -46.7228 0.9409
0.00 0.00 0.00 -165.1440 6.9842 -120.2000 0.0000 0.0000 0.0000 -21.8492 -1.2462 17.1178 0.2016 2.8908 7.9750 -0.5198 -14.8349 13.7781 1.8972 8.6486 24.7023 0.0000 0.0000 0.0000 4.8401 21.9170 -176.5720 -26.3225 -19.0133 108.7828 -0.3941 8.2169 17.5957 -2.7261 -10.2379 29.7507 -7.6173 3.7553 8.0665 6.8518 5.0611 2.8042 11.1012 2.7741 -2.8407 7.0627 6.6828 -29.6667 -4.2323 8.6760 29.9905 -1.0314 3.8857 16.1880 0.0000 0.0000 0.0000 -77.7433 -48.6916 33.5841 30.9417 -41.6870 -12.0310 -0.0000 0.0000 -10.8575 94.5316 40.3406 96.9804 -7.1250 0.0000 -0.0000 32.4973 -60.3754 -44.9648 0.0000 0.0000 0.0000 83.8809 37.0160 58.5052 -47.0124 51.7171 -23.8082 0.0000 0.0000 12.7934 -48.2629 -9.4220 10.3981 7.1250 -0.0000 -0.0000 -19.4337 -43.0964 -0.9516
